<svg width="74" height="74" viewBox="0 0 74 74" fill="none" xmlns="http://www.w3.org/2000/svg">
<mask id="mask0_1886_5509" style="mask-type:alpha" maskUnits="userSpaceOnUse" x="0" y="0" width="74" height="74">
<rect width="74" height="74" transform="matrix(-1 0 0 1 74 0)" fill="#FFCA64"/>
</mask>
<g mask="url(#mask0_1886_5509)">
<path d="M35.8594 7.84783C37.8053 7.8474 39.7463 8.0546 41.6526 8.46624C45.3324 9.26484 48.8262 10.8217 51.9332 13.0473C56.2377 16.121 59.6769 20.3597 61.8892 25.3177C64.1015 30.2757 65.0054 35.77 64.5057 41.2232C64.006 46.6764 62.1213 51.8872 59.0496 56.3077C55.9779 60.7283 51.8326 64.1956 47.0495 66.3451C45.3108 67.1234 43.5029 67.7177 41.6526 68.1191C37.6401 68.9763 33.5004 68.9228 29.5091 67.9623C25.5178 67.0018 21.7666 65.1563 18.5053 62.5487C15.2441 59.9411 12.5477 56.6313 10.5957 52.8398C8.64379 49.0482 7.48111 44.862 7.18514 40.56C10.3314 41.3354 13.5997 41.3849 16.7658 40.7052C19.6072 40.0922 22.3061 38.8957 24.7086 37.184C28.2799 34.6441 31.0755 31.0676 32.7565 26.8877C33.3245 25.472 33.7581 24.0006 34.0509 22.4948C34.6747 19.2689 34.6516 15.9412 33.9831 12.7252C33.6467 11.1169 33.1492 9.55078 32.4989 8.05312C33.6144 7.91629 34.7364 7.84774 35.8594 7.84783Z" fill="url(#paint0_radial_1886_5509)"/>
</g>
<defs>
<radialGradient id="paint0_radial_1886_5509" cx="0" cy="0" r="1" gradientUnits="userSpaceOnUse" gradientTransform="translate(52.2726 60.3671) scale(49.1089 75.5865)">
<stop stop-color="#F0FAFF"/>
<stop offset="0.2" stop-color="#C4F2FE"/>
<stop offset="1" stop-color="#1F76FE"/>
</radialGradient>
</defs>
</svg>
